<svg width="177" height="166" viewBox="0 0 177 166" fill="none" xmlns="http://www.w3.org/2000/svg">
<path d="M176.5 90.5C176.5 298.435 5.94048 467 -204.456 467C-414.851 467 -585.411 298.435 -585.411 90.5C-585.411 -117.435 -414.851 -286 -204.456 -286C5.94048 -286 176.5 -117.435 176.5 90.5Z" fill="#5DB957"/>
<path d="M176.5 90.5C176.5 298.435 5.94048 467 -204.456 467C-414.851 467 -585.411 298.435 -585.411 90.5C-585.411 -117.435 -414.851 -286 -204.456 -286C5.94048 -286 176.5 -117.435 176.5 90.5Z" fill="#5DB957"/>
<path d="M176.5 90.5C176.5 298.435 5.94048 467 -204.456 467C-414.851 467 -585.411 298.435 -585.411 90.5C-585.411 -117.435 -414.851 -286 -204.456 -286C5.94048 -286 176.5 -117.435 176.5 90.5Z" fill="#5DB957"/>
</svg>
